<!DOCTYPE svg PUBLIC "-//W3C//DTD SVG 1.1//EN" "http://www.w3.org/Graphics/SVG/1.1/DTD/svg11.dtd">
<!-- Uploaded to: SVG Repo, www.svgrepo.com, Transformed by: SVG Repo Mixer Tools -->
<svg fill="#fff" version="1.1" id="Capa_1" xmlns="http://www.w3.org/2000/svg" xmlns:xlink="http://www.w3.org/1999/xlink" width="800px" height="800px" viewBox="0 0 179.356 179.355" xml:space="preserve" stroke="#fff">
<g id="SVGRepo_bgCarrier" stroke-width="0"/>
<g id="SVGRepo_tracerCarrier" stroke-linecap="round" stroke-linejoin="round"/>
<g id="SVGRepo_iconCarrier"> <g> <g> <path d="M37.241,96.778c-0.085-0.024-0.162-0.079-0.229-0.158c0,0-0.511-0.354-0.706-0.597l-0.107,0.14l0.655,0.858L37.241,96.778 z"/> <path d="M40.204,101.467c0-4.688-2.85-8.701-6.902-10.425c-0.024-0.012-0.055-0.024-0.082-0.036 c-0.298-0.128-0.603-0.244-0.917-0.335c-0.055-0.019-0.109-0.03-0.167-0.049c-0.286-0.091-0.584-0.164-0.892-0.231 c-0.061-0.012-0.131-0.024-0.198-0.043c-0.706-0.134-1.428-0.213-2.171-0.213c-0.736,0-1.458,0.079-2.152,0.213 c-0.079,0.019-0.167,0.031-0.247,0.049c-0.283,0.062-0.563,0.135-0.837,0.22c-0.073,0.019-0.143,0.036-0.219,0.061 c-0.286,0.098-0.572,0.201-0.852,0.317c-0.052,0.012-0.101,0.036-0.149,0.048c-2.016,0.865-3.729,2.29-4.944,4.086 c0,0,0,0-0.006,0.007c-0.201,0.304-0.386,0.608-0.563,0.925c0,0.007-0.006,0.013-0.006,0.013 c-0.173,0.316-0.329,0.645-0.472,0.986l0,0c-0.576,1.352-0.892,2.838-0.892,4.408c0,5.084,3.346,9.39,7.961,10.826 c1.066,0.329,2.201,0.512,3.374,0.512C35.128,112.805,40.204,107.732,40.204,101.467z M22.222,93.624 c0.399,0.597-0.548,0.694-0.548,0.694c-0.101,0.03-0.195,0.073-0.295,0.121C21.641,94.147,21.921,93.88,22.222,93.624z M23.245,103.549c-0.356,0.451-0.313,0.902-0.313,0.902c0.457,1.595-0.454,1.595-0.454,1.595 c-0.654,0.098-0.399,0.901-0.399,0.901c0,0.45-0.255,0.804-0.255,0.804c0.255,0.347,0.048,0.743,0.048,0.743 c-0.048,0.085-0.073,0.17-0.073,0.256c-1.946-1.852-3.164-4.47-3.164-7.368c0-0.597,0.058-1.182,0.149-1.754 c0.058-0.104,0.094-0.158,0.094-0.158l0.405,0.256c0.356-0.146,0.554,0.401,0.554,0.401c0.308-0.055,0.408,0.5,0.408,0.5 c0.758-0.305,0.91,1.084,0.91,1.084c0.405,0,0.858,0.499,0.858,0.499c0.761,0,0.911,0.511,0.911,0.511 C23.592,102.605,23.245,103.549,23.245,103.549z M23.519,93.137c-0.063,0.561-1.035,0.487-1.266,0.463 c0.405-0.341,0.834-0.651,1.297-0.926L23.519,93.137z M35.752,104.95c0,0-0.356,0.249-0.356,0.84c0,0,0,0.506-0.554,0.506 c0,0-0.612,1.29-2.333,1.041c0,0,0-0.938-0.505-2.034c0,0-0.459-0.603,0.244-1.303c0,0,0.667-0.299-0.35-1.443 c0,0-0.661-0.554-0.305-1.15c0,0,0.101-0.5-0.149-0.646c0,0-0.712,0.146-0.862-0.354c0,0-1.315,0.499-1.927,0.256 c0,0-0.761,0.499-1.37-0.651c0,0-1.011-0.604-0.655-1.15c0,0,0.106-0.549,0.106-1.097c0,0,0.091-0.896,1.108-1.346 c0,0,0.304-0.907,0.761-0.907c0,0,0.959-0.049,1.47-0.244c0,0,0.655-0.2,1.054-0.097c0,0,0.262,0.39,0.106,0.646 c0,0,0.707-0.25,1.166,0.298c0,0,0.457-0.048,0.356-0.396c0,0,1.166,0.7,1.778,0.305c0,0,0.149-0.999-0.399-0.95 c0,0-0.868,0.049-1.272-0.548c0,0-0.457-0.201-0.356,0.098c0,0,0.049,0.305,0.405,0.401c0,0-0.101,0.299-0.454,0.146 c0,0-0.302-0.098-0.408-0.755c0,0-0.81-0.146-1.014-0.5c0,0-0.505,0.152,0.654,0.701c0,0,0.46,0.347-0.149,0.603 c0,0-0.408-0.201,0.048-0.292c0,0-0.1-0.207-0.554-0.359c0,0-0.308-0.299-0.356-0.5c0,0-0.606,0.396-0.861,0.141 c0,0-0.107,0.499-0.405,0.499c0,0-0.055,0.755-1.065,0.463h-0.305c0,0-0.25-0.706,0.104-0.907c0,0,0.655,0.152,0.807,0 c0.155-0.141,0.255-0.396-0.152-0.5c0,0-0.603-0.152-0.353-0.456c0,0,0.298-0.347,0.603,0.109c0,0,0.505-0.353,1.166-0.401 c0,0,1.172-0.506,0.862-0.854c0,0-0.755,0.451-1.111,0.207c0,0-0.996-0.328-0.186-1.126c3.516,0.335,6.509,2.479,8.062,5.474 c-0.149,0.062-0.362,0.122-0.548,0.074c0.155,0.151,0.804,0.883,0.219,1.412c0,0-0.201,0.548-0.807,0.853 c0,0-0.858-2.101-1.933-2.546c0,0,1.117,1.943,2.034,2.838c0,0,0.25,0.152,0.654-0.036c0,0,0.052,1.644-0.91,2.74 c0,0-0.25,0.597-0.149,1.242C36.407,103.306,36.556,104.402,35.752,104.95z"/> <path d="M94.917,66.771c-0.085-0.031-0.161-0.08-0.229-0.162c0,0-0.511-0.35-0.706-0.6l-0.106,0.143l0.654,0.855L94.917,66.771z"/> <path d="M83.172,82.292c1.065,0.329,2.201,0.512,3.374,0.512c6.259,0,11.335-5.078,11.335-11.344c0-4.688-2.85-8.705-6.902-10.431 c-0.024-0.012-0.055-0.018-0.082-0.031c-0.299-0.131-0.603-0.243-0.917-0.338c-0.055-0.018-0.11-0.03-0.167-0.048 c-0.286-0.088-0.584-0.162-0.892-0.231c-0.061-0.012-0.131-0.024-0.198-0.042c-0.707-0.131-1.428-0.213-2.177-0.213 c-0.737,0-1.458,0.076-2.153,0.213c-0.079,0.018-0.167,0.03-0.25,0.049c-0.28,0.063-0.561,0.131-0.834,0.219 c-0.076,0.019-0.143,0.037-0.219,0.061c-0.286,0.094-0.572,0.201-0.853,0.314c-0.052,0.018-0.1,0.036-0.149,0.055 c-2.016,0.861-3.729,2.289-4.944,4.083c0,0,0,0-0.006,0.009c-0.201,0.298-0.387,0.603-0.563,0.922 c0,0.006-0.006,0.012-0.006,0.012c-0.173,0.316-0.329,0.648-0.472,0.983l0,0c-0.576,1.354-0.892,2.844-0.892,4.408 C75.21,76.547,78.556,80.858,83.172,82.292z M84.313,68.854c0,0,0.106-0.548,0.106-1.096c0,0,0.091-0.898,1.108-1.349 c0,0,0.304-0.904,0.761-0.904c0,0,0.959-0.049,1.47-0.25c0,0,0.655-0.198,1.054-0.098c0,0,0.262,0.393,0.106,0.648 c0,0,0.707-0.25,1.166,0.299c0,0,0.457-0.049,0.356-0.393c0,0,1.167,0.697,1.778,0.298c0,0,0.149-0.996-0.399-0.947 c0,0-0.868,0.048-1.272-0.548c0,0-0.457-0.201-0.356,0.101c0,0,0.049,0.299,0.405,0.399c0,0-0.1,0.298-0.453,0.149 c0,0-0.302-0.1-0.405-0.755c0,0-0.812-0.149-1.017-0.499c0,0-0.506,0.149,0.654,0.7c0,0,0.46,0.347-0.149,0.597 c0,0-0.408-0.201,0.048-0.292c0,0-0.1-0.207-0.554-0.356c0,0-0.308-0.299-0.356-0.5c0,0-0.606,0.399-0.861,0.143 c0,0-0.104,0.5-0.405,0.5c0,0-0.055,0.749-1.065,0.457h-0.305c0,0-0.25-0.7,0.104-0.904c0,0,0.658,0.149,0.807,0 c0.155-0.143,0.255-0.398-0.149-0.499c0,0-0.606-0.149-0.356-0.457c0,0,0.298-0.347,0.603,0.106c0,0,0.505-0.347,1.166-0.398 c0,0,1.172-0.506,0.862-0.853c0,0-0.755,0.447-1.111,0.204c0,0-0.996-0.329-0.186-1.121c3.516,0.335,6.509,2.475,8.062,5.468 c-0.149,0.061-0.362,0.125-0.548,0.073c0.155,0.155,0.804,0.886,0.219,1.415c0,0-0.201,0.548-0.807,0.85 c0,0-0.858-2.095-1.93-2.545c0,0,1.114,1.945,2.031,2.844c0,0,0.249,0.149,0.654-0.043c0,0,0.052,1.644-0.91,2.743 c0,0-0.25,0.597-0.149,1.245c0,0,0.149,1.1-0.66,1.653c0,0-0.356,0.25-0.356,0.844c0,0,0,0.502-0.554,0.502 c0,0-0.612,1.291-2.332,1.041c0,0,0-0.935-0.505-2.037c0,0-0.46-0.6,0.243-1.297c0,0,0.667-0.301-0.35-1.446 c0,0-0.661-0.551-0.305-1.148c0,0,0.101-0.505-0.149-0.648c0,0-0.712,0.144-0.861-0.35c0,0-1.315,0.499-1.927,0.249 c0,0-0.761,0.5-1.37-0.648C84.968,70.001,83.951,69.401,84.313,68.854z M81.226,62.667l-0.03,0.469 c-0.064,0.554-1.035,0.487-1.267,0.463C80.334,63.254,80.763,62.944,81.226,62.667z M79.899,63.623 c0.398,0.59-0.548,0.691-0.548,0.691c-0.1,0.034-0.195,0.07-0.295,0.119C79.317,64.146,79.597,63.879,79.899,63.623z M76.461,69.614c0.058-0.106,0.094-0.161,0.094-0.161l0.405,0.256c0.356-0.149,0.554,0.398,0.554,0.398 c0.307-0.048,0.408,0.5,0.408,0.5c0.758-0.302,0.91,1.09,0.91,1.09c0.405,0,0.859,0.499,0.859,0.499 c0.761,0,0.91,0.505,0.91,0.505c0.661-0.106,0.313,0.846,0.313,0.846c-0.356,0.451-0.313,0.898-0.313,0.898 c0.457,1.599-0.454,1.599-0.454,1.599c-0.655,0.097-0.399,0.895-0.399,0.895c0,0.457-0.256,0.807-0.256,0.807 c0.256,0.347,0.049,0.746,0.049,0.746c-0.049,0.083-0.076,0.171-0.076,0.256c-1.945-1.851-3.16-4.469-3.16-7.368 C76.306,70.774,76.364,70.187,76.461,69.614z"/> <path d="M55.755,141.399c-0.088-0.03-0.162-0.079-0.231-0.158c0,0-0.512-0.353-0.703-0.597l-0.107,0.141l0.661,0.852 L55.755,141.399z"/> <path d="M51.815,135.657c-0.027-0.012-0.058-0.019-0.082-0.03c-0.298-0.134-0.606-0.243-0.917-0.335 c-0.058-0.019-0.112-0.03-0.167-0.055c-0.289-0.085-0.587-0.158-0.892-0.226c-0.064-0.018-0.131-0.03-0.201-0.042 c-0.704-0.134-1.428-0.214-2.177-0.214c-0.733,0-1.458,0.073-2.149,0.214c-0.082,0.012-0.167,0.024-0.25,0.048 c-0.28,0.062-0.56,0.129-0.834,0.22c-0.076,0.013-0.146,0.036-0.219,0.062c-0.286,0.091-0.576,0.194-0.855,0.311 c-0.049,0.018-0.098,0.036-0.149,0.055c-2.013,0.864-3.729,2.289-4.944,4.086c0,0,0,0-0.006,0.006 c-0.201,0.298-0.387,0.608-0.561,0.926l-0.006,0.012c-0.177,0.322-0.332,0.646-0.475,0.986l0,0 c-0.572,1.352-0.892,2.838-0.892,4.408c0,5.085,3.349,9.39,7.961,10.827c1.069,0.329,2.202,0.511,3.374,0.511 c6.263,0,11.338-5.078,11.338-11.338C58.718,141.399,55.874,137.387,51.815,135.657z M40.727,138.245 c0.399,0.597-0.548,0.694-0.548,0.694c-0.101,0.03-0.192,0.067-0.292,0.122C40.155,138.77,40.435,138.501,40.727,138.245z M41.75,148.183c-0.356,0.444-0.311,0.896-0.311,0.896c0.453,1.596-0.457,1.596-0.457,1.596c-0.654,0.104-0.399,0.895-0.399,0.895 c0,0.457-0.255,0.804-0.255,0.804c0.255,0.354,0.052,0.755,0.052,0.755c-0.052,0.08-0.076,0.165-0.076,0.256 c-1.946-1.851-3.16-4.476-3.16-7.374c0-0.597,0.055-1.187,0.149-1.747c0.055-0.109,0.094-0.171,0.094-0.171l0.405,0.256 c0.353-0.146,0.554,0.401,0.554,0.401c0.305-0.048,0.405,0.5,0.405,0.5c0.761-0.299,0.91,1.096,0.91,1.096 c0.405,0,0.862,0.493,0.862,0.493c0.761,0,0.91,0.506,0.91,0.506C42.106,147.227,41.75,148.183,41.75,148.183z M42.024,137.771 c-0.061,0.548-1.035,0.481-1.267,0.456c0.408-0.34,0.837-0.65,1.297-0.932L42.024,137.771z M56.367,141.345 c-0.152,0.067-0.362,0.128-0.551,0.079c0.159,0.152,0.807,0.883,0.22,1.413c0,0-0.198,0.548-0.804,0.847 c0,0-0.861-2.096-1.933-2.54c0,0,1.117,1.942,2.034,2.838c0,0,0.25,0.152,0.655-0.043c0,0,0.049,1.65-0.911,2.747 c0,0-0.25,0.596-0.149,1.242c0,0,0.149,1.096-0.664,1.656c0,0-0.353,0.249-0.353,0.84c0,0,0,0.506-0.557,0.506 c0,0-0.609,1.29-2.332,1.041c0,0,0-0.938-0.502-2.04c0,0-0.463-0.597,0.241-1.297c0,0,0.67-0.299-0.347-1.449 c0,0-0.661-0.548-0.308-1.146c0,0,0.101-0.505-0.149-0.645c0,0-0.709,0.14-0.859-0.354c0,0-1.315,0.499-1.927,0.256 c0,0-0.761,0.493-1.373-0.652c0,0-1.011-0.603-0.654-1.15c0,0,0.106-0.548,0.106-1.096c0,0,0.094-0.896,1.111-1.346 c0,0,0.304-0.907,0.758-0.907c0,0,0.962-0.049,1.474-0.244c0,0,0.655-0.2,1.054-0.104c0,0,0.262,0.396,0.106,0.651 c0,0,0.703-0.256,1.166,0.299c0,0,0.454-0.055,0.353-0.396c0,0,1.166,0.7,1.778,0.304c0,0,0.149-0.998-0.399-0.949 c0,0-0.868,0.049-1.272-0.549c0,0-0.454-0.2-0.356,0.098c0,0,0.052,0.299,0.408,0.402c0,0-0.101,0.299-0.457,0.146 c0,0-0.298-0.098-0.405-0.756c0,0-0.81-0.146-1.017-0.499c0,0-0.505,0.152,0.655,0.7c0,0,0.463,0.348-0.149,0.604 c0,0-0.405-0.207,0.049-0.299c0,0-0.097-0.201-0.554-0.354c0,0-0.304-0.298-0.356-0.499c0,0-0.603,0.396-0.859,0.14 c0,0-0.106,0.5-0.405,0.5c0,0-0.058,0.755-1.069,0.456h-0.304c0,0-0.25-0.7,0.106-0.907c0,0,0.655,0.152,0.804,0 c0.155-0.14,0.256-0.396-0.149-0.493c0,0-0.606-0.152-0.356-0.456c0,0,0.302-0.354,0.606,0.109c0,0,0.505-0.354,1.166-0.402 c0,0,1.172-0.505,0.862-0.853c0,0-0.755,0.451-1.111,0.207c0,0-0.999-0.335-0.186-1.126 C51.822,136.212,54.814,138.343,56.367,141.345z"/> <path d="M41.702,132.796c0.548-0.226,0.916-0.359,1.291-0.481c0.603-0.183,0.947-0.268,1.303-0.347 c1.154-0.226,2.089-0.305,2.975-0.317l-8.263-19.898c-2.564,2.526-6.05,4.092-9.901,4.152l8.281,19.924 C38.651,134.586,40.054,133.502,41.702,132.796z"/> <path d="M17.488,110.375L0,138.653l9.127,5.645l17.741-28.674c-0.767-0.104-1.553-0.115-2.295-0.347 C21.68,114.376,19.254,112.622,17.488,110.375z"/> <path d="M125.449,46.171l20.861,12.032l-47.35,82.009l-5.763-55.989c-2,1.047-4.232,1.699-6.641,1.699 c-1.458,0-2.904-0.22-4.296-0.652c-2.7-0.84-4.962-2.423-6.698-4.457l-26.911,50.941c0.493,0.049,0.999,0.062,1.498,0.158 c0.654,0.135,1.041,0.232,1.421,0.354c0.597,0.183,0.996,0.329,1.395,0.5c2.11,0.9,3.8,2.326,5.228,3.957l24.783-46.904 l5.681,55.052c0.405-0.219,0.761-0.536,1.19-0.725c0.551-0.226,0.917-0.358,1.291-0.48c0.606-0.183,0.95-0.269,1.303-0.354 c2.463-0.475,4.055-0.401,5.842-0.061c0.655,0.134,1.042,0.231,1.422,0.353c0.6,0.184,0.996,0.329,1.397,0.5 c2.266,0.962,4.08,2.508,5.554,4.323l48.969-84.853l19.875,11.466l3.854-64.448L125.449,46.171z"/> <path d="M103.881,152.744c-0.086-0.031-0.159-0.08-0.226-0.165c0,0-0.512-0.347-0.706-0.597l-0.104,0.146l0.651,0.853 L103.881,152.744z"/> <path d="M99.948,147.002c-0.024-0.013-0.062-0.019-0.086-0.031c-0.298-0.134-0.603-0.243-0.916-0.334 c-0.055-0.025-0.109-0.037-0.168-0.055c-0.286-0.086-0.584-0.165-0.892-0.226c-0.061-0.013-0.131-0.024-0.198-0.049 c-0.706-0.134-1.428-0.207-2.177-0.207c-0.736,0-1.458,0.073-2.152,0.207c-0.079,0.024-0.167,0.036-0.25,0.049 c-0.28,0.061-0.56,0.134-0.834,0.219c-0.076,0.024-0.143,0.036-0.219,0.062c-0.286,0.097-0.572,0.2-0.852,0.316 c-0.052,0.018-0.101,0.036-0.149,0.055c-2.016,0.858-3.729,2.283-4.944,4.086c0,0,0,0-0.006,0 c-0.201,0.305-0.386,0.608-0.563,0.926c0,0.006-0.006,0.012-0.006,0.012c-0.173,0.316-0.329,0.651-0.472,0.986l0,0 c-0.576,1.352-0.892,2.844-0.892,4.408c0,5.091,3.346,9.39,7.961,10.827c1.066,0.335,2.201,0.511,3.374,0.511 c6.257,0,11.335-5.072,11.335-11.338C106.846,152.744,103.997,148.719,99.948,147.002z M88.859,149.59 c0.399,0.59-0.548,0.688-0.548,0.688c-0.101,0.037-0.195,0.073-0.295,0.122C88.277,150.113,88.567,149.846,88.859,149.59z M89.882,159.515c-0.356,0.45-0.313,0.896-0.313,0.896c0.457,1.596-0.454,1.596-0.454,1.596c-0.654,0.104-0.399,0.9-0.399,0.9 c0,0.457-0.255,0.804-0.255,0.804c0.255,0.354,0.048,0.749,0.048,0.749c-0.048,0.079-0.076,0.171-0.076,0.256 c-1.942-1.852-3.16-4.469-3.16-7.374c0-0.597,0.058-1.181,0.149-1.747c0.058-0.104,0.095-0.165,0.095-0.165l0.405,0.256 c0.356-0.146,0.554,0.402,0.554,0.402c0.308-0.049,0.408,0.499,0.408,0.499c0.758-0.305,0.91,1.09,0.91,1.09 c0.405,0,0.858,0.5,0.858,0.5c0.761,0,0.91,0.505,0.91,0.505C90.229,158.571,89.882,159.515,89.882,159.515z M90.156,149.108 c-0.063,0.554-1.035,0.487-1.267,0.463c0.405-0.341,0.834-0.657,1.297-0.932L90.156,149.108z M104.49,152.689 c-0.146,0.061-0.365,0.121-0.548,0.072c0.158,0.158,0.804,0.889,0.219,1.413c0,0-0.2,0.548-0.804,0.853 c0,0-0.864-2.095-1.936-2.545c0,0,1.12,1.948,2.033,2.843c0,0,0.25,0.152,0.658-0.042c0,0,0.048,1.644-0.914,2.74 c0,0-0.249,0.596-0.146,1.248c0,0,0.146,1.102-0.664,1.65c0,0-0.359,0.256-0.359,0.84c0,0,0,0.512-0.548,0.512 c0,0-0.615,1.291-2.335,1.035c0,0,0-0.932-0.506-2.034c0,0-0.46-0.597,0.243-1.297c0,0,0.667-0.298-0.35-1.449 c0,0-0.66-0.548-0.305-1.145c0,0,0.101-0.506-0.148-0.651c0,0-0.713,0.146-0.862-0.348c0,0-1.315,0.5-1.927,0.25 c0,0-0.762,0.499-1.37-0.646c0,0-1.011-0.603-0.655-1.151c0,0,0.106-0.548,0.106-1.096c0,0,0.091-0.895,1.108-1.346 c0,0,0.305-0.907,0.762-0.907c0,0,0.959-0.049,1.471-0.249c0,0,0.654-0.195,1.053-0.098c0,0,0.262,0.39,0.107,0.645 c0,0,0.706-0.243,1.166,0.305c0,0,0.456-0.049,0.355-0.396c0,0,1.166,0.7,1.781,0.298c0,0,0.146-0.998-0.401-0.949 c0,0-0.865,0.049-1.273-0.548c0,0-0.456-0.195-0.355,0.104c0,0,0.048,0.298,0.404,0.396c0,0-0.101,0.305-0.453,0.152 c0,0-0.302-0.104-0.408-0.755c0,0-0.81-0.152-1.014-0.499c0,0-0.506,0.151,0.654,0.699c0,0,0.46,0.348-0.149,0.598 c0,0-0.407-0.201,0.049-0.293c0,0-0.101-0.207-0.554-0.354c0,0-0.308-0.304-0.356-0.499c0,0-0.605,0.396-0.861,0.141 c0,0-0.106,0.499-0.405,0.499c0,0-0.055,0.749-1.065,0.457h-0.305c0,0-0.25-0.701,0.104-0.901c0,0,0.654,0.146,0.807,0 c0.155-0.146,0.256-0.402-0.152-0.499c0,0-0.603-0.152-0.353-0.463c0,0,0.298-0.342,0.603,0.109c0,0,0.506-0.348,1.166-0.402 c0,0,1.172-0.499,0.861-0.852c0,0-0.755,0.45-1.111,0.207c0,0-0.995-0.329-0.186-1.121 C99.948,147.55,102.943,149.688,104.49,152.689z"/> </g> </g> </g>
</svg>