<!DOCTYPE svg PUBLIC "-//W3C//DTD SVG 1.1//EN" "http://www.w3.org/Graphics/SVG/1.1/DTD/svg11.dtd">

<!-- Uploaded to: SVG Repo, www.svgrepo.com, Transformed by: SVG Repo Mixer Tools -->
<svg fill="#98FB98" version="1.1" id="Layer_1" xmlns="http://www.w3.org/2000/svg" xmlns:xlink="http://www.w3.org/1999/xlink" viewBox="0 0 496 496" xml:space="preserve" width="800px" height="800px">

<g id="SVGRepo_bgCarrier" stroke-width="0"/>

<g id="SVGRepo_tracerCarrier" stroke-linecap="round" stroke-linejoin="round"/>

<g id="SVGRepo_iconCarrier"> <g> <g> <g> <path d="M496,208v-40c0-22.056-17.944-40-40-40h-24h-8h-40v-16h32V80c17.648,0,32-14.352,32-32s-14.352-32-32-32V0h-80h-8H0v432 c0,35.288,28.712,64,64,64h200h8h192v-48h-32v-72h64v-72h-16v-96H496z M416,32c8.816,0,16,7.184,16,16s-7.184,16-16,16V32z M336,56V16h64v80h-64V56z M336,112h32v16h-32V112z M336,208h32v-16h-32v-16h48v48h-48V208z M336,240h64v-80h-64v-16h80v144h-80 V240z M336,432V304h80v72v72h-48v-96h-16v96h-18.104C335.216,442.872,336,437.536,336,432z M288,477.2V464h-16v16h-8h-8v-16h-16 v16h-16v-16h-16v16h-16v-16h-16v16h-16v-16h-16v16h-16v-16h-16v16H96v-16H80v16H64v-16H48v13.2c-18.616-6.608-32-24.352-32-45.2 V16h304v416C320,452.848,306.616,470.592,288,477.2z M448,464v16H314.192c5.52-4.856,10.224-10.608,13.808-17.088V464h88h8H448z M432,296v-88h32v96h-32V296z M480,360h-16v-24h-16v24h-16v-40h48V360z M432,192v-48h24c13.232,0,24,10.768,24,24v24H432z"/> <path d="M360,80c13.232,0,24-10.768,24-24s-10.768-24-24-24s-24,10.768-24,24S346.768,80,360,80z M360,48c4.416,0,8,3.584,8,8 s-3.584,8-8,8c-4.416,0-8-3.584-8-8S355.584,48,360,48z"/> <path d="M32,208h272V32H32V208z M48,48h240v144H48V48z"/> <path d="M136,256H72v40H32v64h40v40h64v-40h40v-64h-40V256z M160,312v32h-40v40H88v-40H48v-32h40v-40h32v40H160z"/> <path d="M256,288c0-17.648-14.352-32-32-32s-32,14.352-32,32s14.352,32,32,32S256,305.648,256,288z M224,304 c-8.824,0-16-7.176-16-16c0-8.824,7.176-16,16-16c8.816,0,16,7.176,16,16C240,296.824,232.816,304,224,304z"/> <path d="M272,336c-17.648,0-32,14.352-32,32s14.352,32,32,32s32-14.352,32-32S289.648,336,272,336z M272,384 c-8.824,0-16-7.176-16-16c0-8.824,7.176-16,16-16c8.816,0,16,7.176,16,16C288,376.824,280.816,384,272,384z"/> <rect x="64" y="80" width="208" height="16"/> <rect x="64" y="144" width="176" height="16"/> <rect x="256" y="144" width="16" height="16"/> </g> </g> </g> </g>

</svg>