<?xml version="1.0" encoding="utf-8"?><!-- Uploaded to: SVG Repo, www.svgrepo.com, Generator: SVG Repo Mixer Tools -->
<svg fill="#0A66C2" width="800px" height="800px" viewBox="0.5 1 19 19" xmlns="http://www.w3.org/2000/svg"><path d="M 1 6 h 4 v 13 H 1 V 6 z m 2 -5 C 1.8 1 1 2 1 3.1 C 1 4.1 1.8 5 3 5 c 1.3 0 2 -0.9 2 -2 s -0.8 -2 -2 -2 z m 11.6 5.2 c -2.1 0 -3.3 1.2 -3.8 2 h -0.1 l -0.2 -1.7 H 6.9 c 0 1.1 0.1 2.4 0.1 3.9 V 19 h 4 v -7.1 c 0 -0.4 0 -0.7 0.1 -1 c 0.3 -0.7 0.8 -1.6 1.9 -1.6 c 1.4 0 2 1.2 2 2.8 V 19 h 4 v -7.4 c 0 -3.7 -1.9 -5.4 -4.4 -5.4 z"/></svg>