<svg xmlns="http://www.w3.org/2000/svg" version="1.1" xmlns:xlink="http://www.w3.org/1999/xlink"
    xmlns:svgjs="http://svgjs.dev/svgjs" viewBox="0 0 800 800">
    <g fill="none" stroke-width="3" stroke="#98FB98" stroke-linecap="round">
        <line x1="319.5" y1="400" x2="480.5" y2="400" transform="rotate(0, 400, 400)" opacity="0.42"></line>
        <line x1="346" y1="400" x2="454" y2="400" transform="rotate(4, 400, 400)" opacity="0.85"></line>
        <line x1="412.5" y1="400" x2="387.5" y2="400" transform="rotate(8, 400, 400)" opacity="0.88"></line>
        <line x1="67" y1="400" x2="733" y2="400" transform="rotate(12, 400, 400)" opacity="0.60"></line>
        <line x1="138.5" y1="400" x2="661.5" y2="400" transform="rotate(16, 400, 400)" opacity="0.67"></line>
        <line x1="257" y1="400" x2="543" y2="400" transform="rotate(20, 400, 400)" opacity="0.69"></line>
        <line x1="58" y1="400" x2="742" y2="400" transform="rotate(24, 400, 400)" opacity="0.19"></line>
        <line x1="471" y1="400" x2="329" y2="400" transform="rotate(28, 400, 400)" opacity="0.89"></line>
        <line x1="244.5" y1="400" x2="555.5" y2="400" transform="rotate(32, 400, 400)" opacity="0.53"></line>
        <line x1="676" y1="400" x2="124" y2="400" transform="rotate(36, 400, 400)" opacity="0.89"></line>
        <line x1="576.5" y1="400" x2="223.5" y2="400" transform="rotate(40, 400, 400)" opacity="0.15"></line>
        <line x1="451" y1="400" x2="349" y2="400" transform="rotate(44, 400, 400)" opacity="0.74"></line>
        <line x1="392" y1="400" x2="408" y2="400" transform="rotate(48, 400, 400)" opacity="0.98"></line>
        <line x1="662" y1="400" x2="138" y2="400" transform="rotate(52, 400, 400)" opacity="0.61"></line>
        <line x1="662" y1="400" x2="138" y2="400" transform="rotate(56, 400, 400)" opacity="0.23"></line>
        <line x1="193" y1="400" x2="607" y2="400" transform="rotate(60, 400, 400)" opacity="0.78"></line>
        <line x1="225.5" y1="400" x2="574.5" y2="400" transform="rotate(64, 400, 400)" opacity="0.17"></line>
        <line x1="448.5" y1="400" x2="351.5" y2="400" transform="rotate(68, 400, 400)" opacity="0.11"></line>
        <line x1="427.5" y1="400" x2="372.5" y2="400" transform="rotate(72, 400, 400)" opacity="0.23"></line>
        <line x1="344.5" y1="400" x2="455.5" y2="400" transform="rotate(76, 400, 400)" opacity="0.63"></line>
        <line x1="274.5" y1="400" x2="525.5" y2="400" transform="rotate(80, 400, 400)" opacity="0.28"></line>
        <line x1="190" y1="400" x2="610" y2="400" transform="rotate(84, 400, 400)" opacity="0.21"></line>
        <line x1="317" y1="400" x2="483" y2="400" transform="rotate(88, 400, 400)" opacity="0.43"></line>
        <line x1="175" y1="400" x2="625" y2="400" transform="rotate(92, 400, 400)" opacity="0.87"></line>
        <line x1="292.5" y1="400" x2="507.5" y2="400" transform="rotate(96, 400, 400)" opacity="0.66"></line>
        <line x1="215" y1="400" x2="585" y2="400" transform="rotate(100, 400, 400)" opacity="0.48"></line>
        <line x1="600.5" y1="400" x2="199.5" y2="400" transform="rotate(104, 400, 400)" opacity="0.96"></line>
        <line x1="227" y1="400" x2="573" y2="400" transform="rotate(108, 400, 400)" opacity="0.82"></line>
        <line x1="332" y1="400" x2="468" y2="400" transform="rotate(112, 400, 400)" opacity="0.39"></line>
        <line x1="218" y1="400" x2="582" y2="400" transform="rotate(116, 400, 400)" opacity="0.27"></line>
        <line x1="254.5" y1="400" x2="545.5" y2="400" transform="rotate(120, 400, 400)" opacity="0.84"></line>
        <line x1="257" y1="400" x2="543" y2="400" transform="rotate(124, 400, 400)" opacity="0.62"></line>
        <line x1="671" y1="400" x2="129" y2="400" transform="rotate(128, 400, 400)" opacity="0.12"></line>
        <line x1="180.5" y1="400" x2="619.5" y2="400" transform="rotate(132, 400, 400)" opacity="0.84"></line>
        <line x1="146.5" y1="400" x2="653.5" y2="400" transform="rotate(136, 400, 400)" opacity="0.64"></line>
        <line x1="318.5" y1="400" x2="481.5" y2="400" transform="rotate(140, 400, 400)" opacity="0.72"></line>
        <line x1="635" y1="400" x2="165" y2="400" transform="rotate(144, 400, 400)" opacity="0.39"></line>
        <line x1="521.5" y1="400" x2="278.5" y2="400" transform="rotate(148, 400, 400)" opacity="0.89"></line>
        <line x1="702.5" y1="400" x2="97.5" y2="400" transform="rotate(152, 400, 400)" opacity="0.21"></line>
        <line x1="490.5" y1="400" x2="309.5" y2="400" transform="rotate(156, 400, 400)" opacity="0.71"></line>
        <line x1="593" y1="400" x2="207" y2="400" transform="rotate(160, 400, 400)" opacity="0.34"></line>
        <line x1="117.5" y1="400" x2="682.5" y2="400" transform="rotate(164, 400, 400)" opacity="0.46"></line>
        <line x1="605" y1="400" x2="195" y2="400" transform="rotate(168, 400, 400)" opacity="0.34"></line>
        <line x1="328.5" y1="400" x2="471.5" y2="400" transform="rotate(172, 400, 400)" opacity="0.15"></line>
        <line x1="117.5" y1="400" x2="682.5" y2="400" transform="rotate(176, 400, 400)" opacity="0.96"></line>
        <line x1="489.5" y1="400" x2="310.5" y2="400" transform="rotate(180, 400, 400)" opacity="0.19"></line>
        <line x1="43" y1="400" x2="757" y2="400" transform="rotate(184, 400, 400)" opacity="0.54"></line>
        <line x1="355" y1="400" x2="445" y2="400" transform="rotate(188, 400, 400)" opacity="0.73"></line>
        <line x1="479" y1="400" x2="321" y2="400" transform="rotate(192, 400, 400)" opacity="0.13"></line>
        <line x1="143.5" y1="400" x2="656.5" y2="400" transform="rotate(196, 400, 400)" opacity="0.09"></line>
        <line x1="528" y1="400" x2="272" y2="400" transform="rotate(200, 400, 400)" opacity="0.40"></line>
        <line x1="524.5" y1="400" x2="275.5" y2="400" transform="rotate(204, 400, 400)" opacity="0.56"></line>
        <line x1="562" y1="400" x2="238" y2="400" transform="rotate(208, 400, 400)" opacity="0.21"></line>
        <line x1="433.5" y1="400" x2="366.5" y2="400" transform="rotate(212, 400, 400)" opacity="0.14"></line>
        <line x1="559.5" y1="400" x2="240.5" y2="400" transform="rotate(216, 400, 400)" opacity="0.41"></line>
        <line x1="371" y1="400" x2="429" y2="400" transform="rotate(220, 400, 400)" opacity="0.99"></line>
        <line x1="241" y1="400" x2="559" y2="400" transform="rotate(224, 400, 400)" opacity="0.85"></line>
        <line x1="90.5" y1="400" x2="709.5" y2="400" transform="rotate(228, 400, 400)" opacity="0.11"></line>
        <line x1="690.5" y1="400" x2="109.5" y2="400" transform="rotate(232, 400, 400)" opacity="0.88"></line>
        <line x1="380.5" y1="400" x2="419.5" y2="400" transform="rotate(236, 400, 400)" opacity="0.92"></line>
        <line x1="280" y1="400" x2="520" y2="400" transform="rotate(240, 400, 400)" opacity="0.56"></line>
        <line x1="70.5" y1="400" x2="729.5" y2="400" transform="rotate(244, 400, 400)" opacity="0.16"></line>
        <line x1="516.5" y1="400" x2="283.5" y2="400" transform="rotate(248, 400, 400)" opacity="0.90"></line>
        <line x1="659" y1="400" x2="141" y2="400" transform="rotate(252, 400, 400)" opacity="0.53"></line>
        <line x1="164" y1="400" x2="636" y2="400" transform="rotate(256, 400, 400)" opacity="0.08"></line>
        <line x1="138" y1="400" x2="662" y2="400" transform="rotate(260, 400, 400)" opacity="0.35"></line>
        <line x1="179.5" y1="400" x2="620.5" y2="400" transform="rotate(264, 400, 400)" opacity="0.44"></line>
        <line x1="349.5" y1="400" x2="450.5" y2="400" transform="rotate(268, 400, 400)" opacity="0.66"></line>
        <line x1="60" y1="400" x2="740" y2="400" transform="rotate(272, 400, 400)" opacity="0.20"></line>
        <line x1="715.5" y1="400" x2="84.5" y2="400" transform="rotate(276, 400, 400)" opacity="0.71"></line>
        <line x1="286.5" y1="400" x2="513.5" y2="400" transform="rotate(280, 400, 400)" opacity="0.96"></line>
        <line x1="87" y1="400" x2="713" y2="400" transform="rotate(284, 400, 400)" opacity="0.35"></line>
        <line x1="646.5" y1="400" x2="153.5" y2="400" transform="rotate(288, 400, 400)" opacity="0.65"></line>
        <line x1="214" y1="400" x2="586" y2="400" transform="rotate(292, 400, 400)" opacity="0.98"></line>
        <line x1="584.5" y1="400" x2="215.5" y2="400" transform="rotate(296, 400, 400)" opacity="0.95"></line>
        <line x1="584" y1="400" x2="216" y2="400" transform="rotate(300, 400, 400)" opacity="0.58"></line>
        <line x1="45.5" y1="400" x2="754.5" y2="400" transform="rotate(304, 400, 400)" opacity="0.35"></line>
        <line x1="713.5" y1="400" x2="86.5" y2="400" transform="rotate(308, 400, 400)" opacity="0.67"></line>
        <line x1="438" y1="400" x2="362" y2="400" transform="rotate(312, 400, 400)" opacity="0.14"></line>
        <line x1="332.5" y1="400" x2="467.5" y2="400" transform="rotate(316, 400, 400)" opacity="0.73"></line>
        <line x1="79.5" y1="400" x2="720.5" y2="400" transform="rotate(320, 400, 400)" opacity="0.65"></line>
        <line x1="309" y1="400" x2="491" y2="400" transform="rotate(324, 400, 400)" opacity="0.41"></line>
        <line x1="248.5" y1="400" x2="551.5" y2="400" transform="rotate(328, 400, 400)" opacity="0.21"></line>
        <line x1="510.5" y1="400" x2="289.5" y2="400" transform="rotate(332, 400, 400)" opacity="0.50"></line>
        <line x1="426" y1="400" x2="374" y2="400" transform="rotate(336, 400, 400)" opacity="0.75"></line>
        <line x1="737.5" y1="400" x2="62.5" y2="400" transform="rotate(340, 400, 400)" opacity="0.23"></line>
        <line x1="606.5" y1="400" x2="193.5" y2="400" transform="rotate(344, 400, 400)" opacity="0.72"></line>
        <line x1="144.5" y1="400" x2="655.5" y2="400" transform="rotate(348, 400, 400)" opacity="0.29"></line>
    </g>
</svg>