<?xml version="1.0" encoding="iso-8859-1"?>
<!-- Uploaded to: SVG Repo, www.svgrepo.com, Generator: SVG Repo Mixer Tools -->
<svg fill="#000000" height="800px" width="800px" version="1.1" id="Capa_1" xmlns="http://www.w3.org/2000/svg" xmlns:xlink="http://www.w3.org/1999/xlink" 
	 viewBox="0 0 489 489" xml:space="preserve">
<g>
	<path d="M145,244.5c0,49,39.8,88.8,88.8,88.8s88.8-39.8,88.8-88.8s-39.8-88.8-88.8-88.8S145,195.5,145,244.5z M241.6,191.3
		c0,5.4,0,5.4,5.4,6.3c4.1,0.6,8,1.9,11.8,3.5c2.1,0.9,2.9,2.4,2.2,4.6c-1,3.3-1.8,6.6-2.9,9.9c-1,3.1-2,3.5-4.9,2.1
		c-6-2.9-12.2-4.1-18.8-3.7c-1.7,0.1-3.4,0.3-5,1c-5.7,2.5-6.6,8.8-1.8,12.6c2.4,2,5.2,3.4,8.2,4.6c5,2.1,10.1,4.1,14.9,6.7
		c15.2,8.4,19.3,27.5,8.6,40.6c-3.9,4.7-8.9,7.9-14.8,9.5c-2.6,0.7-3.7,2.1-3.6,4.7c0.1,2.6,0,5.2,0,7.9c0,2.3-1.2,3.6-3.5,3.7
		c-2.8,0.1-5.6,0.1-8.5,0c-2.5,0-3.6-1.4-3.7-3.9c0-1.9,0-3.8-0.1-5.7c0-4.2-0.2-4.4-4.2-5c-5.2-0.8-10.3-2-15.1-4.3
		c-3.7-1.8-4.1-2.7-3.1-6.7c0.8-2.9,1.6-5.8,2.5-8.7c1.1-3.4,2-3.8,5-2.2c5.3,2.7,10.9,4.3,16.7,5c3.8,0.5,7.5,0.1,11-1.4
		c6.5-2.8,7.6-10.4,2-15c-1.9-1.5-4-2.7-6.2-3.7c-5.7-2.5-11.7-4.4-17.1-7.7c-8.8-5.3-14.3-12.5-13.7-23.1
		c0.7-12.1,7.6-19.6,18.6-23.6c4.6-1.7,4.6-1.6,4.6-6.4c0-1.6,0-3.2,0-4.8c0.1-3.6,0.7-4.2,4.3-4.3c1.1,0,2.2,0,3.3,0
		C241.6,183.7,241.6,183.7,241.6,191.3z M112.8,229.1c3,0,5.5,2.5,5.5,5.5v19.8c0,3-2.5,5.5-5.5,5.5H78.4c-3,0-5.5-2.5-5.5-5.5
		v-19.8c0-3,2.5-5.5,5.5-5.5L112.8,229.1L112.8,229.1z M11.1,99.7h338.8l0,0c-1.1,2.6-1.7,5.5-1.7,8.5v20.1l0,0
		c0,1.1,0.1,2.3,0.3,3.4c0.1,0.9,0.4,1.7,0.6,2.6v0.1h-267c0.5,2.4,0.7,5,0.7,7.5c0,22.7-18.4,41-41,41c-2.5,0-4.9-0.2-7.2-0.6
		v124.6c2.3-0.4,4.7-0.7,7.2-0.7c22.7,0,41,18.4,41,41c0,2.6-0.3,5.1-0.7,7.5h267c-0.6,1.9-1,3.9-1,6v20.1c0,3,0.6,5.9,1.7,8.5H11.1
		c-6.1,0-11.1-5-11.1-11.1V110.8C0,104.7,5,99.7,11.1,99.7z M489,360.7v20.1c0,4.7-3.8,8.5-8.5,8.5H370c-4.7,0-8.5-3.8-8.5-8.5
		v-20.1c0-4.7,3.8-8.5,8.5-8.5h110.5C485.2,352.2,489,356,489,360.7z M489,310.2v20.1c0,4.7-3.8,8.5-8.5,8.5H370
		c-4.7,0-8.5-3.8-8.5-8.5v-20.1c0-4.7,3.8-8.5,8.5-8.5h110.5C485.2,301.7,489,305.5,489,310.2z M489,259.7v20.1
		c0,4.7-3.8,8.5-8.5,8.5H370c-4.7,0-8.5-3.8-8.5-8.5v-20.1c0-4.7,3.8-8.5,8.5-8.5h110.5C485.2,251.2,489,255,489,259.7z M489,209.2
		v20.1c0,4.7-3.8,8.5-8.5,8.5H370c-4.7,0-8.5-3.8-8.5-8.5v-20.1c0-4.7,3.8-8.5,8.5-8.5h110.5C485.2,200.7,489,204.5,489,209.2z
		 M489,158.7v20.1c0,4.7-3.8,8.5-8.5,8.5H370c-4.7,0-8.5-3.8-8.5-8.5v-20.1c0-4.7,3.8-8.5,8.5-8.5h110.5
		C485.2,150.2,489,154,489,158.7z M489,108.2v20.1c0,4.7-3.8,8.5-8.5,8.5H370c-4.7,0-8.5-3.8-8.5-8.5v-20.1c0-4.7,3.8-8.5,8.5-8.5
		h110.5C485.2,99.7,489,103.5,489,108.2z"/>
</g>
</svg>